<?xml version="1.0" standalone="no"?>
<!DOCTYPE svg PUBLIC "-//W3C//DTD SVG 20010904//EN"
 "http://www.w3.org/TR/2001/REC-SVG-20010904/DTD/svg10.dtd">
<svg version="1.0" xmlns="http://www.w3.org/2000/svg"
 width="500.000000pt" height="500.000000pt" viewBox="0 0 500.000000 500.000000"
 preserveAspectRatio="xMidYMid meet">

<g transform="translate(0.000000,500.000000) scale(0.100000,-0.100000)"
fill="#000000" stroke="none">
<path d="M2074 3962 c-105 -48 -210 -96 -235 -106 -24 -10 -76 -34 -115 -52
l-71 -33 -2 -69 -2 -69 103 -12 c157 -19 148 -14 148 -80 -1 -56 -12 -154 -26
-221 l-7 -35 42 43 c104 104 294 193 496 233 76 15 333 19 404 6 l43 -8 -22
33 c-18 29 -70 132 -70 142 0 2 83 41 185 86 144 64 185 87 185 101 0 23 13
20 -305 64 -143 19 -309 42 -369 50 -169 23 -169 23 -382 -73z m464 -349 c-16
-2 -40 -2 -55 0 -16 2 -3 4 27 4 30 0 43 -2 28 -4z"/>
<path d="M1547 3727 c-55 -25 -67 -35 -65 -52 3 -17 14 -21 71 -29 44 -5 72
-5 78 1 11 11 1 114 -10 112 -3 0 -37 -15 -74 -32z"/>
<path d="M1632 3545 c0 -16 2 -22 5 -12 2 9 2 23 0 30 -3 6 -5 -1 -5 -18z"/>
<path d="M2470 3513 c-157 -26 -348 -100 -469 -182 -48 -33 -66 -53 -85 -94
-13 -28 -68 -142 -121 -252 -53 -110 -112 -232 -131 -272 -18 -39 -72 -151
-119 -248 -47 -97 -88 -187 -91 -199 -5 -21 1 -25 63 -43 37 -12 89 -24 114
-27 l47 -5 22 62 c13 34 29 76 35 92 7 17 23 56 35 88 l22 57 243 0 c282 0
244 22 295 -168 l34 -123 21 23 c11 13 63 82 115 153 52 72 123 168 158 214
43 59 59 88 52 95 -7 7 -15 7 -24 1 -54 -40 -68 -47 -75 -39 -7 8 -112 365
-126 429 -3 11 -9 31 -14 45 -16 43 -41 137 -41 157 0 25 54 133 83 164 13 14
41 38 62 52 l40 27 -60 -1 c-33 -1 -71 -4 -85 -6z m-110 -103 c0 -4 -6 -10
-13 -13 -8 -3 -14 4 -15 20 -2 22 0 24 13 13 8 -7 15 -16 15 -20z m-46 -4 c-3
-8 -14 -12 -25 -9 -10 3 -26 0 -34 -7 -9 -7 -18 -10 -22 -6 -12 12 16 29 46
29 17 0 28 5 24 10 -3 6 -1 7 5 3 6 -4 9 -13 6 -20z m-175 -288 c13 -57 31
-134 41 -173 9 -38 23 -97 30 -130 7 -33 16 -73 21 -88 17 -56 14 -57 -187
-57 l-183 0 18 43 c10 23 33 72 50 110 17 37 31 69 31 72 0 2 27 66 61 142 34
76 65 148 70 161 5 12 12 22 17 22 4 0 19 -46 31 -102z"/>
<path d="M2754 3489 c-154 -20 -244 -102 -244 -223 0 -43 20 -103 43 -127 l21
-22 30 35 c76 87 122 98 397 98 l211 0 -17 -27 c-29 -46 -227 -314 -609 -826
-97 -130 -175 -241 -172 -246 12 -18 385 -31 432 -15 13 5 16 4 9 -3 -5 -6
-59 -18 -120 -27 -402 -62 -812 -62 -1109 -1 -230 48 -430 146 -487 239 -41
68 -15 163 63 231 49 43 22 32 -63 -26 -280 -189 -130 -441 332 -559 394 -101
938 -87 1484 39 486 112 835 285 870 431 7 33 -22 87 -62 111 l-31 20 5 -39
c5 -34 1 -43 -28 -71 -48 -47 -141 -86 -232 -100 -88 -12 -475 -15 -494 -3
-16 10 4 39 212 307 243 315 360 469 405 535 64 94 100 178 100 233 l0 47
-442 -1 c-244 -1 -471 -5 -504 -10z"/>
<path d="M1600 3380 c-6 -12 -8 -30 -5 -41 4 -11 -2 -37 -14 -62 -12 -25 -20
-62 -20 -92 0 -27 -5 -66 -11 -85 -5 -19 -10 -36 -10 -37 0 -6 59 -3 74 3 25
9 19 24 -9 24 -19 0 -25 6 -27 23 0 12 -2 34 -3 49 -3 36 17 111 34 132 7 9
21 16 29 16 12 0 11 4 -6 16 -24 16 -30 59 -9 67 9 4 9 6 0 6 -7 1 -17 -8 -23
-19z"/>
<path d="M1660 3258 c0 -9 5 -20 10 -23 13 -8 13 5 0 25 -8 13 -10 13 -10 -2z"/>
<path d="M3929 2472 c14 -27 14 -87 -1 -115 -97 -184 -509 -379 -1018 -481
-687 -138 -1405 -71 -1761 163 -87 58 -132 100 -171 160 -20 32 -28 39 -28 25
0 -27 54 -112 99 -153 126 -117 369 -218 663 -276 216 -42 298 -49 623 -49
303 -1 374 3 570 34 550 85 961 249 1095 435 30 43 35 57 35 105 -1 63 -21 99
-81 145 -31 23 -34 24 -25 7z"/>
<path d="M2270 1465 l0 -115 75 0 75 0 0 115 0 115 -75 0 -75 0 0 -115z"/>
<path d="M2570 1465 l0 -115 70 0 70 0 0 115 0 115 -70 0 -70 0 0 -115z"/>
<path d="M1830 1460 c120 -12 390 -11 390 0 0 6 -83 9 -232 8 -165 -1 -211 -3
-158 -8z"/>
<path d="M2760 1460 c0 -12 232 -12 380 0 76 5 47 7 -142 8 -153 1 -238 -2
-238 -8z"/>
</g>
</svg>
